<svg xmlns="http://www.w3.org/2000/svg" viewBox="0 0 499.2 240.8"><title>Untitled-1</title><path d="M70.7,228l45.9-7.1q3.4-.4,10.5-0.4,2.6,0,5.3,2.6t-0.4,2.3q-9,2.3-13.2,3l-33.5,6.4-24.8,4.1a104,104,0,0,1-21.1,1.9,92.5,92.5,0,0,1-13.9-.8q-6.8-.4-14.3-4.9T0.7,219.7a80,80,0,0,1-.8-8.7,101.5,101.5,0,0,1,.8-10.2,203.2,203.2,0,0,1,11.7-43.3Q29,112.1,58.3,60.6L73.7,33.1,83.9,12.4A47.7,47.7,0,0,1,90.3,2.3,3.6,3.6,0,0,1,93.7,0a4.2,4.2,0,0,1,1.9.4,2.4,2.4,0,0,0,1.9,0A7.2,7.2,0,0,1,99.7,0a7.9,7.9,0,0,1,3,.4q6.8,4.1,6.8,9.4,0.4,9.4-3.8,23.3A193.9,193.9,0,0,1,91.4,65.8q-19.9,37.6-35,71.9L41.8,168.9Q33.5,187,32,191.1t-2.4,7.1q-1.3,4.1-2.1,6.8a78.9,78.9,0,0,0-.8,8.3,27.3,27.3,0,0,0,1.5,9.4,8.2,8.2,0,0,0,6.4,6,40.3,40.3,0,0,0,9.8,1.1h3.4Z" transform="translate(0)"/><path d="M147.5,154.6l3,1.9a2,2,0,0,1,1.1,2.4,11.9,11.9,0,0,1-.8,2.4,20.5,20.5,0,0,0-2.4,4,33.1,33.1,0,0,1-3.2,5.1,154.4,154.4,0,0,1-15,19.9q-9,9.8-16.9,9.8a12.4,12.4,0,0,1-9.4-6.4q-1.9-2.3-1.9-6.8a1.6,1.6,0,0,0-.4-1.1c-0.3-.2-0.6-0.1-1.1.4A24.4,24.4,0,0,1,85,191.5a28.2,28.2,0,0,1-5.3-.4l-3.8-.8a14.3,14.3,0,0,1-4.1-1.5q-5.6-2.6-4.9-10.5l2.3-10.5q4.9-16.2,14.3-25.2a12.6,12.6,0,0,1,9-4.1,16.7,16.7,0,0,1,8.3,2.6q3.8,2.3,4.5,8.3l1.5,10.2a26.1,26.1,0,0,1-.4,4.9,1.3,1.3,0,0,1-1.1,1.1,2.2,2.2,0,0,1-1.1-1.1,7.8,7.8,0,0,1-.4-3l-3-11.3a1.2,1.2,0,0,0-1.1-.8,1.5,1.5,0,0,0-1.1.4Q89.9,161,86.9,178a4.2,4.2,0,0,0-.4,1.9l0.8,0.8a1.5,1.5,0,0,0,1.1.4l2.6-.8q11.7-7.1,16.6-14.3l8.3-12.4q1.9-3,4.1-2.3t1.1,5.6a20.5,20.5,0,0,0-.8,4.1l-4.9,19.2-1.9,5.6a23.9,23.9,0,0,0-1.5,6.4V193a2.2,2.2,0,0,0,.9,2.1,1.8,1.8,0,0,0,2.1-.2,3.3,3.3,0,0,0,1.7-1.1,3.8,3.8,0,0,1,1.3-1.1l1.9-1.9,3-3.8A186.2,186.2,0,0,0,139.6,167l4-6,2.1-3.4Z" transform="translate(0)"/><path d="M241.5,158a2,2,0,0,1-.9,1.5,2.9,2.9,0,0,1-1.3.8L212,176.4q-20.1,12-25.8,14.3a53,53,0,0,1-10.9,2.6q-2.6,0-3.6-.9a6.4,6.4,0,0,1-1.3-3.6v-2.3a1.5,1.5,0,0,0-1.1.4l-16.9,16.9a8.5,8.5,0,0,1-4.7,2.6,52.4,52.4,0,0,1-7.3.4h-5.3c-2,0-3-1.4-3-4.1a31.9,31.9,0,0,1,2.6-13.5l17.7-44.8,1.1-3.4,7.9-17.3q16.6-33.5,33.9-65.5l13.5-25.6q3-5.6,9.8-16.9l2.6-4.5a9.7,9.7,0,0,1,2.4-2.8,9,9,0,0,1,2.4-.9l2.3-.4h1.5q4.1,0,6,4.1a8,8,0,0,1,.8,4.1q0,4.9-2.3,14.7a155.7,155.7,0,0,1-15.8,37.2,24.2,24.2,0,0,1-2.1,4,23.8,23.8,0,0,0-2.1,4,61.5,61.5,0,0,0-3.8,7.1q-17.3,47.4-38,82.8-0.4.8-1.5,3.8t-4.5,9.8l26-22.2a75.7,75.7,0,0,1,8.3-6.4,8.9,8.9,0,0,1,4.1-1.9,6.1,6.1,0,0,1,2.6.8,1.8,1.8,0,0,1,1.3,1.3,1.8,1.8,0,0,1-.6,1.7l-4.1,4.5-15.8,16.9-7.5,9.4-1.9,3.4c0,0.5.1,0.8,0.4,0.8l0.4,0.4a23.5,23.5,0,0,1,4.5-1.5q5.6-2.6,25.8-14.3l27.3-15.8a2.6,2.6,0,0,1,1.7-.4,2.3,2.3,0,0,1,2.1,1.5Z" transform="translate(0)"/><path d="M298.7,157.6a2,2,0,0,1,2.3,2.3q0,3-3.4,4.1-13.5,4.9-39.5,20.7-1.9,1.1-2.6,4.5l-2.3,10.2A45.7,45.7,0,0,1,239.6,222a32.9,32.9,0,0,1-24.1,10.2,44.7,44.7,0,0,1-6.8-.8q-6-1.1-5.3-6.8a16,16,0,0,1,4.1-7.9l12.4-12.4,9.8-7.9a7.2,7.2,0,0,0,3.4-6.4q0.4-7.1-1.1-21.4-0.4-2.6-.8-6.4a23.6,23.6,0,0,1,0-6l1.1-7.1q1.5-10.2,11.7-14.3a23.6,23.6,0,0,1,10.5-1.9l9.8,0.4a9.9,9.9,0,0,1,7.1,4.1l1.9,2.6a1.4,1.4,0,0,1,0,1.9l-3.4,2.3-6.4,3.4q-4.1,2.3-6,8.7-0.8,4.9-1.1,11.3t-0.4,9q0,1.5,2.3,1.1l9.4-5.6,9.4-5.3a106.2,106.2,0,0,1,10.2-5.5,61.1,61.1,0,0,1,10.5-3.6h0.8Zm-70,49.3a1.5,1.5,0,0,0-1.1.4,69.1,69.1,0,0,0-12.8,14.3l-0.4.8,0.4,1.1a2.2,2.2,0,0,0,1.5-.4q8.3-3.8,12.8-14.7Z" transform="translate(0)"/><path d="M371.9,121.1a2.7,2.7,0,0,1,1.7,2.6q0,2.3-2.4,2.4a7.2,7.2,0,0,1-3.2-.2l-10.9-.8-17.7-1.5a1.9,1.9,0,0,0-2.3,0,2.1,2.1,0,0,0-.8,1.1l-9.8,18.8-4.5,9a67.8,67.8,0,0,1-3.8,6.8l-7.1,13.2a198.8,198.8,0,0,0-7.9,22.2,20.5,20.5,0,0,0-.8,4.1,6.6,6.6,0,0,0,.8,3,5.5,5.5,0,0,0,2.6,2.4,8.3,8.3,0,0,0,3.8.9h2.3a24.2,24.2,0,0,0,9.4-1.9l1.5-.8A70.1,70.1,0,0,0,341.6,187q2.6-3,9-11.3l8.7-11.3,3.4-4.1a6.1,6.1,0,0,1,1.7-.9,3.2,3.2,0,0,1,2.8.2,2.4,2.4,0,0,1,.9,2.4,4.2,4.2,0,0,1-.6,2.1l-8.7,12.8L349.1,190a164.1,164.1,0,0,1-14.7,14.3q-8.7,7.5-16.6,10.2a44.8,44.8,0,0,1-13.9,2.6,21,21,0,0,1-4.1-.4,7.8,7.8,0,0,0-3.4,0,19.2,19.2,0,0,1-13.5-11.3,17.5,17.5,0,0,1-.4-4.5,119.5,119.5,0,0,1,2.6-22.9,143.7,143.7,0,0,1,3.8-16.2,226.9,226.9,0,0,1,8.1-22.4q5.1-12.2,5.5-13.4l3-4.9a57.7,57.7,0,0,0-7.5-.4l-22.2-3a6.1,6.1,0,0,1-3.4-1.3,2.5,2.5,0,0,1-.8-3.6,3.2,3.2,0,0,1,2.8-2.4,6,6,0,0,1,2.8.2q21.8,1.5,31.6,3a8.9,8.9,0,0,0,1.5-2.3q2.3-3.4,7.5-10.2l5.3-6.8a73.8,73.8,0,0,1,8.3-10.2l1.9-2.1c1-1.1,1.6-1.6,1.9-1.3a3.7,3.7,0,0,0,2.6.6l2.3-.2h1.1a9.7,9.7,0,0,1,8.3,4.1q2.6,3.8,2.6,5.6a18.5,18.5,0,0,1-1.1,4.5,66.3,66.3,0,0,1-6.4,15l-0.8,1.5-2.6,4.5c0.5,0.5,1.6.8,3.4,0.8l24.8,3A7.2,7.2,0,0,1,371.9,121.1Z" transform="translate(0)"/><path d="M426.6,150.7a2.5,2.5,0,0,1,1.1,2.4q0,2.6-1.1,3l-1.5.4a36.3,36.3,0,0,1-6.8.4q-11.3,0-17.7-1.5l-1.1-.2c-0.3-.1-0.4.1-0.4,0.6a86,86,0,0,1-4.1,18.1,194.8,194.8,0,0,1-8.7,20.3,48.7,48.7,0,0,1-4.1,7.1q-3.4,4.1-7.1,4.1l-4.1,1.1a20,20,0,0,1-4.5.4,9.7,9.7,0,0,1-3-.4,45.1,45.1,0,0,0-6.8-.4,13.1,13.1,0,0,1-8.3-3.4,11.4,11.4,0,0,1-4.9-9.4q0-10.9,7.1-21.1,6-12,10.9-16.9l3.4-2.3a10.5,10.5,0,0,1,4.5-.8,21.5,21.5,0,0,1,4.1.4,8.5,8.5,0,0,1,3,1.1,28.7,28.7,0,0,1,4.1,4.9,3.2,3.2,0,0,1,0,3l-1.9,5.3-4.9,11.7-3.8,9,1.5-.8q11.3-12,18.1-30.1a1.3,1.3,0,0,0,.4-0.9,1.3,1.3,0,0,1,.4-0.9,1.7,1.7,0,0,0-1.1-1.9l-3-.8a15.1,15.1,0,0,1-4.7-1.9,20.9,20.9,0,0,1-4-3.8q-3-4.1-3-7.5a14.9,14.9,0,0,1,1.9-6.4q3.4-6.4,11.3-9a11.5,11.5,0,0,1,3.4-.4,8.1,8.1,0,0,1,8.7,8.3v15a1.8,1.8,0,0,0,1.5,1.9,34.5,34.5,0,0,0,12.4,2.6,63.1,63.1,0,0,0,7.3-.4,16,16,0,0,0,4-.8Zm-32.7-14.9a7.9,7.9,0,0,0-.4-3,8.9,8.9,0,0,0-.4-1.7A4.8,4.8,0,0,0,392,129h-0.4q-0.8,0-2.6,1.9l-3,4.9a7.4,7.4,0,0,0-.8,3.4,4.6,4.6,0,0,0,1.1,3.4,16.2,16.2,0,0,0,3.2,1.9,16.7,16.7,0,0,1,3.2,1.9l0.8-7.1A11.5,11.5,0,0,0,393.9,135.8Z" transform="translate(0)"/><path d="M499.2,158.8a3.4,3.4,0,0,1-.6,1.7,7.3,7.3,0,0,1-.9,1.3,85.9,85.9,0,0,1-12.2,12q-7.7,6.4-11.5,8.3a22.4,22.4,0,0,1-10.2,2.3,44.7,44.7,0,0,1-6.8-.8q-4.1-.7-7.5-5.6a8,8,0,0,1-.8-4.1l1.1-9V164l-1.1.4A122.5,122.5,0,0,0,436,176.8l-1.1,2.6a4.1,4.1,0,0,0-1.5,1.9,48.6,48.6,0,0,0-3.8,5.6,12,12,0,0,1-10.9,6.4,11.3,11.3,0,0,1-3.4-.4l-7.5-1.9c-2,0-2.8-1-2.3-3q3.8-10.9,4.5-12.8a122.9,122.9,0,0,1,15.8-26.7,8.8,8.8,0,0,0,1.7-2.3,7.1,7.1,0,0,1,1.3-1.9q1.9-2.6,3-3h0.4l1.3,0.4a2,2,0,0,0,1.7,0q3.8-.4,5.6,1.5a20.5,20.5,0,0,1,3.8,6.4,6.9,6.9,0,0,1,0,4.5,10,10,0,0,1-1.1,4.5,1.5,1.5,0,0,0,1.1-.4l6.4-2.3a11.7,11.7,0,0,1,4.9-1.5h1.5c2.5,0,4.2.5,5.1,1.5s1.2,2.8.9,5.3l-1.1,12a2.7,2.7,0,0,0,.9,2.3,3.3,3.3,0,0,0,2.8.4,62.8,62.8,0,0,0,20.7-13.4l6-5.8a8.8,8.8,0,0,1,2.1-1.1,2.7,2.7,0,0,1,3.2.8A3.3,3.3,0,0,1,499.2,158.8Z" transform="translate(0)"/></svg>